<svg sodipodi:docname="Typography_Canvas.svg" version="1.1" id="svg1" xml:space="preserve"
  xmlns:inkscape="http://www.inkscape.org/namespaces/inkscape"
  xmlns:sodipodi="http://sodipodi.sourceforge.net/DTD/sodipodi-0.dtd"
  xmlns="http://www.w3.org/2000/svg" xmlns:svg="http://www.w3.org/2000/svg"
  xmlns:rdf="http://www.w3.org/1999/02/22-rdf-syntax-ns#" xmlns:cc="http://creativecommons.org/ns#"
  xmlns:dc="http://purl.org/dc/elements/1.1/" viewBox="-1.12 271.64 1000.7 482.1"><sodipodi:namedview id="base" pagecolor="#ffffff" bordercolor="#000000" borderopacity="0.3" inkscape:pageopacity="0.0" inkscape:pageshadow="2" inkscape:zoom="0.5" inkscape:cx="500" inkscape:cy="500" inkscape:document-units="px" inkscape:current-layer="layer1" showgrid="false" showguides="true" inkscape:window-width="1280" inkscape:window-height="737" inkscape:window-x="0" inkscape:window-y="0" inkscape:window-maximized="1" showborder="true" inkscape:showpageshadow="false" inkscape:pagecheckerboard="0" inkscape:deskcolor="#d1d1d1"><sodipodi:guide id="guide_baseline" inkscape:label="baseline" position="0,253" orientation="0,1" inkscape:locked="false"></sodipodi:guide><sodipodi:guide id="guide_ascender" inkscape:label="ascender" position="0,945" orientation="0,1" inkscape:locked="false"></sodipodi:guide><sodipodi:guide id="guide_caps" inkscape:label="caps" position="0,896" orientation="0,1" inkscape:locked="false"></sodipodi:guide><sodipodi:guide id="guide_xheight" inkscape:label="xheight" position="0,729" orientation="0,1" inkscape:locked="false"></sodipodi:guide><sodipodi:guide id="guide_descender" inkscape:label="descender" position="0,28" orientation="0,1" inkscape:locked="false"></sodipodi:guide></sodipodi:namedview><defs id="defs4"></defs><metadata id="metadata7"><rdf:rdf><cc:work rdf:about=""><dc:format>image/svg+xml</dc:format><dc:type rdf:resource="http://purl.org/dc/dcmitype/StillImage"></dc:type><dc:title></dc:title></cc:work></rdf:rdf></metadata><g id="layer1" inkscape:groupmode="layer" inkscape:label="Layer 1"><path class="st0" d="m 133.68485,304.03096 c 4.6417,-44.63154 64.00655,-41.64989 64.00655,0 v 9.41081 c 43.07819,100.6306 123.77856,156.25696 212.21509,177.03531 46.09122,10.90165 94.38115,12.29929 140.63525,5.87011 46.17265,-6.42917 90.22805,-20.77834 127.85028,-41.5567 58.63192,-32.33224 101.79155,-80.03859 113.27358,-137.24895 v -13.51058 c 4.64167,-44.63154 64.00661,-41.64989 64.00661,0 v 22.36234 c 17.75245,40.06589 42.10096,72.11859 69.38106,97.92849 23.37145,22.08282 48.94145,39.87952 74.51145,54.32187 v 27.76659 c -9.44616,-5.1247 -18.97394,-10.52894 -28.33876,-16.49223 v 84.7906 h 28.33876 v 42.768 H 855.67221 v 136.224 H 791.6656 V 617.38344 H 197.6914 V 753.60745 H 133.68485 V 617.38344 H -1.087201 v -42.768 h 23.697078 v -87.58589 c -7.817593,5.12471 -15.7980474,9.87671 -23.697078,14.44235 V 473.42578 C 21.306947,459.9152 43.456797,443.88885 63.815106,424.41496 91.420988,397.95284 115.85096,365.15472 133.68485,323.87754 Z m 408.63212,218.49883 v 52.08565 H 520.41142 V 524.4865 c -16.61238,1.02493 -33.3062,1.02493 -50.08145,0 v 50.12894 H 448.42442 V 522.4366 c -14.41368,-1.67717 -28.74594,-4.19293 -42.91534,-7.54728 -2.60586,-0.65224 -5.21172,-1.21129 -7.73615,-1.95671 v 61.58965 h -21.90555 v -68.01882 c -17.18242,-5.59059 -33.87624,-12.57884 -50.08146,-20.96472 v 88.98354 H 303.88037 V 473.23944 c -17.91531,-11.08801 -34.93486,-24.13271 -50.65149,-39.13413 v 140.51013 h -21.90555 v -163.6179 c -12.29641,-14.34917 -23.61564,-30.18917 -33.71337,-47.52 V 574.70862 H 791.6656 V 379.5039 c -8.79475,15.4673 -19.62536,29.90965 -32.24754,43.32706 V 574.61544 H 737.51253 V 443.42295 c -14.98369,12.57884 -31.6776,23.94636 -49.59287,33.82307 l -1.05867,0.55906 v 96.81036 h -21.90552 v -85.72236 c -15.96091,7.36094 -32.73617,13.69694 -50.08146,18.91482 v 66.90072 H 592.96846 V 513.7712 c -13.02931,3.168 -26.38437,5.68376 -39.82086,7.5473 -3.58307,0.3727 -7.16612,0.83858 -10.83063,1.21129 z m 367.67113,-80.0386 v 132.21743 h 39.33233 V 475.10296 C 936.20965,465.69214 923.42465,455.1632 911.12825,443.51614 Z M 888.08258,574.70862 V 419.47661 c -11.64486,-13.51059 -22.55695,-28.23248 -32.41037,-44.53835 v 199.67718 h 32.41037 z M 105.67181,413.32695 v 161.38167 h 28.01304 V 373.26107 c -8.55049,14.53554 -17.99675,27.7666 -28.01304,40.06588 z M 83.766256,574.70862 v -137.0626 c -1.954388,1.95671 -3.990228,4.00659 -6.026053,5.87012 -10.667765,10.24941 -21.824114,19.66024 -33.224775,28.23247 v 102.96001 z" id="path1" style="opacity:1;fill:#96b6c5;fill-opacity:1;stroke-width:8.711;stroke-dasharray:none"></path></g><style type="text/css" id="style1">.st0{fill-rule:evenodd;clip-rule:evenodd;}</style></svg>